     <svg width="40" height="40" viewBox="0 0 40 40" fill="none" xmlns="http://www.w3.org/2000/svg">
          <circle cx="20" cy="20" r="19.7143" fill="white" stroke="#343434" stroke-width="0.571429" />
          <path d="M27.0866 13.4264L29.1481 11.7192L26.5488 11.64L25.6851 9L24.8214 11.64L22.2222 11.7192L24.2836 13.4264L23.5422 16.1192L25.6851 14.5264L27.8281 16.1192L27.0866 13.4264Z" fill="#343434" />
          <path d="M30.6637 18.9L32 17.8L30.3215 17.756L29.7593 16.04L29.1971 17.756L27.5186 17.8L28.8549 18.9L28.3741 20.6424L29.7593 19.6128L31.1445 20.6424L30.6637 18.9Z" fill="#343434" />
          <path d="M14.9204 11.0725C14.9204 19.1498 20.9724 25.686 28.4514 25.686C29.1034 25.686 29.743 25.6328 30.3704 25.5399C28.3899 28.8213 24.9703 31 21.0709 31C14.9573 31 10 25.6461 10 19.0435C10 14.8321 12.0174 11.1389 15.0557 9C14.9696 9.67754 14.9204 10.3684 14.9204 11.0725Z" fill="#343434" stroke="#343434" stroke-width="2" stroke-linecap="round" stroke-linejoin="round" />
        </svg>